HIERARCHY
ROOT Hips
{
	OFFSET 0.000000 0.000000 0.000000
	CHANNELS 6 Xposition Yposition Zposition Xrotation Yrotation Zrotation
	JOINT Chest
	{
		OFFSET 0.000000 0.009282 11.569106
		CHANNELS 6 Xposition Yposition Zposition Xrotation Yrotation Zrotation
		JOINT Chest2
		{
			OFFSET 0.000000 -0.016863 9.269641
			CHANNELS 6 Xposition Yposition Zposition Xrotation Yrotation Zrotation
			JOINT Chest3
			{
				OFFSET 0.000000 0.000000 8.374491
				CHANNELS 6 Xposition Yposition Zposition Xrotation Yrotation Zrotation
				JOINT Chest4
				{
					OFFSET 0.000000 0.000000 8.374493
					CHANNELS 6 Xposition Yposition Zposition Xrotation Yrotation Zrotation
					JOINT Neck
					{
						OFFSET 0.000000 -0.000001 12.152554
						CHANNELS 6 Xposition Yposition Zposition Xrotation Yrotation Zrotation
						JOINT Head
						{
							OFFSET 0.000000 -0.040100 7.802319
							CHANNELS 6 Xposition Yposition Zposition Xrotation Yrotation Zrotation
							End Site
							{
								OFFSET 0.000000 -0.020946 14.853096
							}
						}
					}
					JOINT RightCollar
					{
						OFFSET -2.894404 0.000000 6.791374
						CHANNELS 6 Xposition Yposition Zposition Xrotation Yrotation Zrotation
						JOINT RightShoulder
						{
							OFFSET -13.574684 0.000000 0.000000
							CHANNELS 6 Xposition Yposition Zposition Xrotation Yrotation Zrotation
							JOINT RightElbow
							{
								OFFSET -23.923903 0.000000 0.000000
								CHANNELS 6 Xposition Yposition Zposition Xrotation Yrotation Zrotation
								JOINT RightWrist
								{
									OFFSET -19.846718 -0.012765 0.000000
									CHANNELS 6 Xposition Yposition Zposition Xrotation Yrotation Zrotation
									End Site
									{
										OFFSET -14.973145 0.000000 0.000000
									}
								}
							}
						}
					}
					JOINT LeftCollar
					{
						OFFSET 2.894404 0.000000 6.791374
						CHANNELS 6 Xposition Yposition Zposition Xrotation Yrotation Zrotation
						JOINT LeftShoulder
						{
							OFFSET 13.574684 0.000000 0.000000
							CHANNELS 6 Xposition Yposition Zposition Xrotation Yrotation Zrotation
							JOINT LeftElbow
							{
								OFFSET 23.923903 0.000000 0.000000
								CHANNELS 6 Xposition Yposition Zposition Xrotation Yrotation Zrotation
								JOINT LeftWrist
								{
									OFFSET 19.846718 -0.012765 0.000000
									CHANNELS 6 Xposition Yposition Zposition Xrotation Yrotation Zrotation
									End Site
									{
										OFFSET 14.973145 0.000000 0.000000
									}
								}
							}
						}
					}
				}
			}
		}
	}
	JOINT RightHip
	{
		OFFSET -9.469263 -0.004642 0.045487
		CHANNELS 6 Xposition Yposition Zposition Xrotation Yrotation Zrotation
		JOINT RightKnee
		{
			OFFSET 0.000000 -0.002666 -40.478676
			CHANNELS 6 Xposition Yposition Zposition Xrotation Yrotation Zrotation
			JOINT RightAnkle
			{
				OFFSET 0.000000 -0.049110 -35.224068
				CHANNELS 6 Xposition Yposition Zposition Xrotation Yrotation Zrotation
				JOINT RightToe
				{
					OFFSET 0.000000 -12.539530 -6.151390
					CHANNELS 6 Xposition Yposition Zposition Xrotation Yrotation Zrotation
					End Site
					{
						OFFSET 0.000000 -5.044995 -1.291870
					}
				}
			}
		}
	}
	JOINT LeftHip
	{
		OFFSET 9.469263 -0.004642 0.045487
		CHANNELS 6 Xposition Yposition Zposition Xrotation Yrotation Zrotation
		JOINT LeftKnee
		{
			OFFSET 0.000000 -0.002666 -40.478676
			CHANNELS 6 Xposition Yposition Zposition Xrotation Yrotation Zrotation
			JOINT LeftAnkle
			{
				OFFSET 0.000000 -0.049110 -35.224068
				CHANNELS 6 Xposition Yposition Zposition Xrotation Yrotation Zrotation
				JOINT LeftToe
				{
					OFFSET 0.000000 -12.539530 -6.151390
					CHANNELS 6 Xposition Yposition Zposition Xrotation Yrotation Zrotation
					End Site
					{
						OFFSET 0.000000 -5.044995 -1.291870
					}
				}
			}
		}
	}
}
MOTION
Frames: 8
Frame Time: 0.016667
-9.214540 -9.011415 83.152298 1.192749 1.922744 -115.809354 -0.000001 0.009283 11.569106 3.167740 1.170664 1.794203 0.000001 -0.016864 9.269648 1.412862 0.506283 0.827732 -0.000001 0.000000 8.374496 1.412862 0.506283 0.827729 0.000001 0.000000 8.374489 1.060328 0.377802 0.621968 -0.000001 -0.000001 12.152559 17.436822 -1.445341 -1.194128 -0.000001 -0.040106 7.802320 -3.825295 -2.227751 -2.673098 -2.894404 0.000000 6.791375 -8.954166 -9.430226 -1.702739 -13.574684 0.000002 0.000011 16.524294 -39.261218 -10.370630 -23.923891 0.000000 -0.000005 62.195798 5.635511 73.125904 -19.846716 -0.012765 -0.000000 -31.838882 23.097434 66.377001 2.894404 0.000001 6.791378 -8.209034 6.248524 -0.843731 13.574683 0.000002 -0.000004 7.272472 41.963770 13.105028 23.923889 -0.000004 -0.000022 71.447057 13.362945 -59.878356 19.846733 -0.012770 -0.000001 -5.018802 -14.459145 -54.121599 -9.469264 -0.004641 0.045488 -0.605344 -0.149108 -14.065804 0.000676 -0.002761 -40.478466 4.020389 -2.117557 -14.634227 -0.000051 -0.049116 -35.224163 -2.136408 0.160159 1.024040 0.000002 -12.539535 -6.151379 -0.031896 -0.088723 -0.030137 9.469261 -0.004641 0.045489 2.260242 4.065996 15.275570 -0.000707 -0.002760 -40.478706 -0.633899 -0.290483 15.323902 -0.000427 -0.049149 -35.224113 -0.422906 -3.569586 9.215589 0.000001 -12.539532 -6.151377 0.225727 0.168909 -0.008404 
-9.245558 -9.007236 83.163834 1.242605 1.971141 -115.802715 -0.000001 0.009282 11.569100 3.088834 1.171601 1.780063 -0.000001 -0.016863 9.269650 1.377742 0.503683 0.821860 -0.000001 -0.000000 8.374487 1.377743 0.503684 0.821852 -0.000001 -0.000001 8.374485 1.033980 0.375913 0.617527 0.000001 -0.000003 12.152559 17.527997 -1.431370 -1.202618 0.000001 -0.040096 7.802317 -3.655590 -2.201134 -2.682211 -2.894403 -0.000000 6.791376 -8.712684 -9.424907 -1.677455 -13.574685 0.000001 0.000000 17.092601 -39.899701 -9.540827 -23.923895 0.000003 -0.000006 62.039619 6.492874 72.019919 -19.846722 -0.012764 0.000003 -33.718827 23.704884 68.532909 2.894404 -0.000000 6.791369 -8.090320 6.154204 -0.723800 13.574685 -0.000003 0.000001 8.317732 42.513102 11.791254 23.923883 0.000002 0.000002 71.090781 13.495932 -59.207017 19.846727 -0.012769 0.000002 -5.739323 -14.787399 -55.326479 -9.469263 -0.004642 0.045483 -0.506371 -0.175427 -13.927545 0.000677 -0.002762 -40.478474 3.987296 -2.103075 -14.665739 -0.000049 -0.049116 -35.224155 -2.069630 0.178719 1.014608 -0.000000 -12.539534 -6.151380 -0.065173 -0.103000 -0.031294 9.469261 -0.004643 0.045491 2.349664 4.058284 15.297582 -0.000703 -0.002760 -40.478710 -0.646141 -0.314784 15.247969 -0.000427 -0.049145 -35.224117 -0.416032 -3.556062 9.270098 -0.000001 -12.539530 -6.151378 0.178646 0.141297 -0.007875 
-9.278395 -8.998657 83.177246 1.305681 2.020852 -115.811308 -0.000001 0.009282 11.569099 3.028046 1.160881 1.791987 -0.000000 -0.016862 9.269647 1.350913 0.498519 0.826915 -0.000001 -0.000001 8.374489 1.350915 0.498519 0.826917 -0.000000 -0.000001 8.374480 1.013856 0.372064 0.621285 -0.000000 -0.000003 12.152561 17.606445 -1.419290 -1.223931 0.000001 -0.040106 7.802322 -3.509586 -2.173381 -2.715626 -2.894405 0.000000 6.791374 -8.311868 -9.365550 -1.592363 -13.574681 -0.000000 -0.000003 17.618353 -40.588802 -8.741782 -23.923906 0.000000 -0.000004 61.837521 7.567763 70.988028 -19.846722 -0.012767 -0.000000 -35.845700 24.220578 70.916625 2.894403 -0.000000 6.791379 -8.129993 6.110286 -0.606162 13.574684 0.000001 0.000018 9.602134 42.922920 10.399219 23.923908 -0.000005 -0.000000 70.744586 13.531787 -58.617742 19.846716 -0.012771 0.000002 -6.515888 -15.099113 -56.637872 -9.469264 -0.004642 0.045493 -0.403327 -0.215387 -13.773815 0.000679 -0.002762 -40.478470 3.970538 -2.077287 -14.704246 -0.000047 -0.049115 -35.224155 -2.015695 0.179179 1.001918 0.000001 -12.539531 -6.151388 -0.097978 -0.109695 -0.029628 9.469263 -0.004642 0.045489 2.433478 4.029937 15.295271 -0.000700 -0.002760 -40.478703 -0.635057 -0.326467 15.202686 -0.000433 -0.049147 -35.224113 -0.405531 -3.541448 9.344699 0.000001 -12.539536 -6.151379 0.122719 0.117049 -0.006265 
-9.308987 -8.990281 83.187759 1.370645 2.061796 -115.834203 -0.000001 0.009282 11.569100 2.988175 1.145648 1.810561 -0.000001 -0.016863 9.269650 1.333707 0.488693 0.836224 -0.000002 -0.000000 8.374496 1.333707 0.488692 0.836223 0.000001 -0.000000 8.374494 1.000944 0.364698 0.628240 0.000001 -0.000002 12.152555 17.660614 -1.401572 -1.240210 -0.000001 -0.040101 7.802308 -3.408521 -2.136606 -2.738368 -2.894403 0.000001 6.791369 -8.143267 -9.268504 -1.585123 -13.574687 -0.000001 -0.000001 18.362176 -41.203973 -7.840071 -23.923912 0.000002 -0.000003 61.743134 8.700871 70.025620 -19.846724 -0.012772 0.000002 -38.087331 24.643445 73.329403 2.894406 0.000002 6.791373 -8.272483 6.081496 -0.458391 13.574680 0.000000 -0.000008 10.832352 43.182652 9.045761 23.923906 -0.000007 -0.000006 70.513193 13.585504 -58.138352 19.846724 -0.012764 0.000007 -7.261242 -15.399216 -57.790347 -9.469264 -0.004642 0.045481 -0.312569 -0.266874 -13.596697 0.000680 -0.002762 -40.478477 3.947966 -2.052646 -14.723280 -0.000045 -0.049116 -35.224171 -1.978002 0.191828 0.952795 -0.000001 -12.539533 -6.151385 -0.109390 -0.116685 -0.028261 9.469263 -0.004643 0.045483 2.510934 3.993719 15.218273 -0.000704 -0.002761 -40.478706 -0.611029 -0.335301 15.226612 -0.000437 -0.049150 -35.224110 -0.429014 -3.532258 9.426471 0.000000 -12.539533 -6.151372 0.094632 0.101375 -0.007557 
-9.336704 -8.972319 83.195038 1.430931 2.097482 -115.874241 0.000000 0.009282 11.569112 2.962404 1.132662 1.820698 0.000001 -0.016863 9.269647 1.321686 0.480899 0.842818 -0.000000 -0.000000 8.374485 1.321687 0.480899 0.842823 -0.000001 -0.000000 8.374495 0.991923 0.358855 0.633154 -0.000001 -0.000002 12.152551 17.685487 -1.380521 -1.239380 0.000001 -0.040096 7.802309 -3.361713 -2.098980 -2.729277 -2.894404 0.000000 6.791368 -8.247040 -9.184115 -1.612227 -13.574686 -0.000000 -0.000004 19.204013 -41.731254 -6.876175 -23.923908 -0.000002 -0.000005 61.825322 9.601658 69.062502 -19.846720 -0.012771 0.000005 -40.187710 24.911320 75.636285 2.894405 0.000001 6.791374 -8.371554 6.010028 -0.299870 13.574685 0.000000 -0.000003 11.782160 43.366865 7.877217 23.923904 -0.000005 0.000006 70.365592 13.713049 -57.752740 19.846722 -0.012771 0.000005 -7.785793 -15.632056 -58.669180 -9.469264 -0.004642 0.045488 -0.234472 -0.325971 -13.414526 0.000679 -0.002763 -40.478481 3.938212 -2.021288 -14.707883 -0.000042 -0.049115 -35.224152 -1.952665 0.217316 0.864472 0.000002 -12.539532 -6.151392 -0.118426 -0.130166 -0.026795 9.469265 -0.004640 0.045488 2.583792 3.949300 15.131420 -0.000704 -0.002761 -40.478699 -0.586245 -0.333028 15.241929 -0.000441 -0.049148 -35.224121 -0.454347 -3.522500 9.540010 -0.000001 -12.539531 -6.151380 0.073865 0.088193 -0.009649 
-9.364227 -8.956211 83.199539 1.471676 2.139154 -115.927366 -0.000000 0.009283 11.569107 2.939384 1.142374 1.821510 0.000000 -0.016862 9.269636 1.311270 0.478463 0.845427 -0.000000 0.000000 8.374505 1.311271 0.478464 0.845428 -0.000000 -0.000000 8.374480 0.984112 0.357037 0.635100 0.000001 -0.000002 12.152558 17.687547 -1.359096 -1.222466 -0.000001 -0.040098 7.802300 -3.357266 -2.065661 -2.691103 -2.894405 0.000002 6.791370 -8.332418 -9.082643 -1.704142 -13.574684 -0.000001 -0.000007 20.042335 -42.262035 -5.731804 -23.923893 -0.000002 -0.000012 62.035398 10.323165 68.061865 -19.846722 -0.012769 0.000004 -42.141185 25.022169 77.803696 2.894406 0.000003 6.791368 -8.406953 5.927098 -0.192435 13.574686 -0.000003 0.000001 12.439369 43.493562 6.992213 23.923906 -0.000004 0.000007 70.287496 13.857453 -57.446146 19.846712 -0.012768 0.000003 -8.209867 -15.908663 -59.375429 -9.469263 -0.004641 0.045487 -0.177379 -0.358573 -13.228205 0.000677 -0.002761 -40.478474 3.958490 -1.992049 -14.651722 -0.000036 -0.049112 -35.224152 -1.931339 0.250432 0.753022 -0.000001 -12.539536 -6.151392 -0.132734 -0.147562 -0.027854 9.469265 -0.004642 0.045486 2.660478 3.920209 15.003349 -0.000703 -0.002762 -40.478710 -0.555563 -0.324636 15.252111 -0.000445 -0.049153 -35.224113 -0.492897 -3.515887 9.640733 0.000002 -12.539531 -6.151373 0.063471 0.081805 -0.013516 
-9.392278 -8.935413 83.201988 1.524646 2.183115 -115.981120 0.000000 0.009283 11.569112 2.923734 1.139729 1.801135 -0.000000 -0.016862 9.269647 1.304163 0.474918 0.835975 0.000000 -0.000000 8.374495 1.304163 0.474918 0.835976 -0.000000 0.000000 8.374493 0.978768 0.354408 0.627996 0.000001 -0.000000 12.152556 17.672986 -1.322416 -1.193293 -0.000001 -0.040107 7.802295 -3.383266 -2.008354 -2.625655 -2.894402 0.000001 6.791369 -8.220696 -8.993138 -1.797542 -13.574681 -0.000000 -0.000000 20.908148 -42.778223 -4.339524 -23.923899 -0.000000 -0.000002 62.059433 10.865981 67.036893 -19.846731 -0.012768 0.000007 -43.752064 24.961413 79.663870 2.894407 0.000001 6.791371 -8.453370 5.882271 -0.133991 13.574684 -0.000001 -0.000004 12.840016 43.556489 6.436331 23.923901 -0.000006 0.000001 70.336086 14.004079 -57.194700 19.846731 -0.012767 0.000003 -8.555625 -16.162026 -59.940367 -9.469263 -0.004641 0.045494 -0.092174 -0.392081 -13.066633 0.000675 -0.002762 -40.478474 3.957040 -1.987912 -14.625464 -0.000035 -0.049116 -35.224159 -1.921432 0.291703 0.712996 0.000000 -12.539529 -6.151388 -0.134431 -0.158279 -0.028549 9.469264 -0.004639 0.045489 2.739430 3.890378 14.890774 -0.000704 -0.002763 -40.478687 -0.534707 -0.326461 15.254596 -0.000454 -0.049152 -35.224110 -0.519852 -3.520301 9.794664 -0.000001 -12.539533 -6.151382 0.056861 0.083643 -0.015104 
-9.429223 -8.916882 83.203850 1.581355 2.236714 -116.026281 -0.000000 0.009281 11.569107 2.915951 1.121542 1.768643 0.000000 -0.016863 9.269644 1.299849 0.470722 0.820428 0.000001 0.000000 8.374488 1.299849 0.470722 0.820431 -0.000001 -0.000000 8.374481 0.975515 0.351299 0.616328 0.000000 -0.000003 12.152552 17.656367 -1.264751 -1.167666 0.000001 -0.040100 7.802306 -3.412584 -1.911534 -2.559545 -2.894404 0.000001 6.791375 -8.051698 -8.974203 -1.815341 -13.574686 0.000002 -0.000003 21.763054 -43.182423 -3.098053 -23.923895 0.000001 -0.000005 61.951400 11.328465 66.155990 -19.846741 -0.012761 0.000001 -45.111169 24.832268 81.266376 2.894405 -0.000000 6.791367 -8.454808 5.864983 -0.138823 13.574683 0.000000 -0.000004 13.088092 43.606974 6.057289 23.923914 -0.000001 0.000010 70.421217 14.209917 -56.977243 19.846720 -0.012763 0.000001 -8.942584 -16.381044 -60.507485 -9.469263 -0.004643 0.045486 0.020868 -0.421805 -12.962250 0.000676 -0.002761 -40.478477 3.935698 -1.987929 -14.638021 -0.000036 -0.049116 -35.224167 -1.922921 0.323044 0.729358 0.000002 -12.539533 -6.151387 -0.121551 -0.159512 -0.030371 9.469261 -0.004644 0.045489 2.832460 3.861611 14.784165 -0.000704 -0.002759 -40.478706 -0.514357 -0.326855 15.248558 -0.000461 -0.049155 -35.224117 -0.542843 -3.539230 9.968308 0.000001 -12.539536 -6.151382 0.046725 0.097772 -0.017457 
